<?xml version="1.0" encoding="UTF-8" standalone="no"?>
<!-- Created with Inkscape (http://www.inkscape.org/) -->

<svg
   width="32"
   height="32"
   viewBox="0 0 8.466667 8.4666668"
   version="1.1"
   id="svg1"
   inkscape:version="1.4 (e7c3feb100, 2024-10-09)"
   sodipodi:docname="passability_square.svg"
   xmlns:inkscape="http://www.inkscape.org/namespaces/inkscape"
   xmlns:sodipodi="http://sodipodi.sourceforge.net/DTD/sodipodi-0.dtd"
   xmlns="http://www.w3.org/2000/svg"
   xmlns:svg="http://www.w3.org/2000/svg">
  <sodipodi:namedview
     id="namedview1"
     pagecolor="#ffffff"
     bordercolor="#000000"
     borderopacity="0.25"
     inkscape:showpageshadow="2"
     inkscape:pageopacity="0.0"
     inkscape:pagecheckerboard="0"
     inkscape:deskcolor="#d1d1d1"
     inkscape:document-units="mm"
     showguides="true"
     inkscape:zoom="11.313709"
     inkscape:cx="16.617009"
     inkscape:cy="11.402096"
     inkscape:window-width="1282"
     inkscape:window-height="1219"
     inkscape:window-x="447"
     inkscape:window-y="119"
     inkscape:window-maximized="0"
     inkscape:current-layer="layer1" />
  <defs
     id="defs1" />
  <g
     inkscape:label="Layer 1"
     inkscape:groupmode="layer"
     id="layer1"
     transform="translate(-73.03172,-146.26395)">
    <path
       id="rect1"
       style="fill:#ffffff;stroke:#000000;stroke-width:0.396875;stroke-dasharray:none"
       d="m 75.210528,148.36175 c -0.04487,0 -0.081,0.0361 -0.081,0.081 v 4.10905 c 0,0.0449 0.03613,0.081 0.081,0.081 h 4.109051 c 0.04487,0 0.081,-0.0361 0.081,-0.081 v -4.10905 c 0,-0.0449 -0.03613,-0.081 -0.081,-0.081 z m 1.034045,1.0294 h 2.040961 c 0.04487,0 0.081,0.0361 0.081,0.081 v 2.05026 c 0,0.0449 -0.03613,0.081 -0.081,0.081 h -2.040961 c -0.04487,0 -0.081,-0.0361 -0.081,-0.081 v -2.05026 c 0,-0.0449 0.03613,-0.081 0.081,-0.081 z" />
  </g>
</svg>
